<svg id="Layer_1" data-name="Layer 1" xmlns="http://www.w3.org/2000/svg" viewBox="0 0 323.45 507.5"><defs><style>.cls-1{fill:#fff;}</style></defs><title>Armoire-Logo_Small</title><path class="cls-1" d="M1090.28,839.54V522.11c0-60.12-32.46-104.61-128.66-104.61V465l2.38,0c86,0,83,56.37,83,90.2V681.47c1,7.44-4.4,13.53-11,13.53H961.62v8H1035a12,12,0,0,1,12,12v28a12,12,0,0,1-12,12H961.62v9H1034a12,12,0,0,1,12,12v28a12,12,0,0,1-12,12H961.62v42.78h89c43.29,0,25.25,66.13,56.51,66.13,0,0,16.83,2.4,16.83-18C1123.29,880.43,1090.28,887.64,1090.28,839.54Z" transform="translate(-800.5 -417.5)"/><path class="cls-1" d="M878,804V776a12,12,0,0,1,12-12h72.82v-9H891a12,12,0,0,1-12-12V715a12,12,0,0,1,12-12h71.82v-8H891c-6.6,0-12-6.09-12-13.53V556.32c0-29.18-3-90.75,83.82-91.31V417.5c-96.19,0-128.66,44.49-128.66,104.61V839.54c0,48.1-33,40.89-33.67,67.33,0,20.44,16.83,18,16.83,18,31.26,0,13.23-66.13,56.51-66.13h89V816H890A12,12,0,0,1,878,804Z" transform="translate(-800.5 -417.5)"/></svg>